<svg width="500" height="500" viewBox="0 0 500 500" fill="none" xmlns="http://www.w3.org/2000/svg">
  <path d="M487 423.762v-310.15c0-17.252-12.536-31.238-28-31.238H192C168 82.374 157.5 45 139 45H42c-15 0-28 7.252-28 25.102v353.66C14 441.014 26.536 455 42 455h417c15.464 0 28-13.986 28-31.238" fill="#f5aa26"/>
  <rect x="98" y="147.208" width="354" height="255.712" rx="28" transform="rotate(-8.645 98 147.208)" fill="#fff"/>
  <rect x="72.114" y="80.773" width="354" height="286.435" rx="28" transform="rotate(8.56 72.114 80.773)" fill="#fff"/>
  <rect x="14" y="127" width="473" height="328" rx="28" fill="url(#a)"/>
  <defs>
    <linearGradient id="a" x1="250.5" y1="127" x2="250.5" y2="440.5" gradientUnits="userSpaceOnUse">
      <stop stop-color="#ffeb51"/>
      <stop offset="1" stop-color="#f5a925"/>
    </linearGradient>
  </defs>
</svg>
