<svg xmlns="http://www.w3.org/2000/svg" width="20" height="20" viewBox="0 0 20 20" fill="none">
<g clip-path="url(#clip0_1_788)">
<path d="M10.7485 10.4591L12.6008 12.6223L15.0917 14.2485L15.525 10.4728L15.0917 6.78226L12.5531 8.21081L10.7485 10.4591Z" fill="#00832D"/>
<path d="M0 13.8971V17.1145C0 17.8492 0.583656 18.4457 1.30284 18.4457H4.45194L5.10402 16.0146L4.45194 13.8971L2.29143 13.2309L0 13.8971Z" fill="#0066DA"/>
<path d="M4.45194 2.47266L0 7.02121L2.29158 7.68585L4.45194 7.02121L5.09215 4.93249L4.45194 2.47266Z" fill="#E94235"/>
<path d="M7.24792e-05 13.8985H4.45194V7.02112H7.24792e-05V13.8985Z" fill="#2684FC"/>
<path d="M17.9356 4.39858L15.0916 6.78235V14.2485L17.9474 16.6415C18.3749 16.9837 19.0002 16.6719 19.0002 16.1166V4.91286C19.0002 4.35149 18.3599 4.0412 17.9356 4.39866" fill="#00AC47"/>
<path d="M10.7485 10.4592V13.8971H4.45194V18.4457H13.789C14.5081 18.4457 15.0917 17.8492 15.0917 17.1146V14.2485L10.7485 10.4592Z" fill="#00AC47"/>
<path d="M13.789 2.47266H4.45194V7.02121H10.7485V10.4592L15.0918 6.78219V3.80384C15.0918 3.06905 14.5081 2.47273 13.789 2.47273" fill="#FFBA00"/>
</g>
<defs>
<clipPath id="clip0_1_788">
<rect width="19" height="16" fill="white" transform="translate(0 2.47266)"/>
</clipPath>
</defs>
</svg>