<svg width="800" height="800" viewBox="0 -4 48 48" xmlns="http://www.w3.org/2000/svg">
  <title>Twitter-color</title>
  <path d="M48 4.735a19.2 19.2 0 0 1-5.655 1.59A10.08 10.08 0 0 0 46.675.74a19.4 19.4 0 0 1-6.257 2.447C38.627 1.225 36.066 0 33.231 0c-5.435 0-9.844 4.521-9.844 10.098q0 1.188.254 2.3c-8.185-.423-15.44-4.438-20.3-10.555a10.3 10.3 0 0 0-1.332 5.082c0 3.502 1.738 6.593 4.38 8.405a9.7 9.7 0 0 1-4.462-1.26v.124c0 4.894 3.395 8.977 7.903 9.901a9.4 9.4 0 0 1-2.595.356q-.953 0-1.854-.18c1.254 4.01 4.888 6.932 9.199 7.01-3.37 2.71-7.618 4.325-12.23 4.325q-1.194 0-2.35-.139C4.359 38.327 9.537 40 15.096 40c18.115 0 28.019-15.385 28.019-28.73 0-.439-.009-.878-.026-1.308A20.2 20.2 0 0 0 48 4.735" fill="#00aaec" fill-rule="evenodd"/>
</svg>
