<svg width="720" height="720" viewBox="0 0 720 720" fill="none" xmlns="http://www.w3.org/2000/svg">
<path d="M362.991 153.037C310.238 202.656 271.065 270.555 314.416 325.92C226.668 299.805 200.553 333.232 260.096 368.227C231.962 375 215.839 377.035 189.585 393.298C181.436 378.778 172.87 368.861 164.514 363.074C152.931 355.051 141.753 354.961 132.653 361.537C129.187 364.042 126.023 367.514 123.252 371.883C96.0919 414.712 122.207 508.498 167.126 483.134C168.17 488.88 174.438 499.848 177.049 503.504C102.865 510.508 28.0646 512.383 35.5044 551.556C44.5315 599.086 171.826 622.068 258.007 588.118C408.954 674.821 507.669 541.633 527.517 446.05C610.042 450.229 628.845 397.476 649.215 324.875C705.624 329.576 703.012 267.422 652.871 265.855C631.456 166.616 503.491 105.507 418.355 122.743C397.463 84.6144 337.398 105.507 362.991 153.037Z" fill="#704730"/>
<path d="M389.628 514.473C346.285 551.959 276.986 548.878 243.382 502.46C160.024 387.312 413.085 312.151 436.636 406.355C442.381 429.337 428.279 481.045 389.628 514.473Z" fill="#ECDCC9"/>
<path d="M527.517 440.827C473.276 432.263 355.678 377.628 314.416 317.563C273.154 257.498 303.5 236.958 314.416 205.409C364.028 206.607 380.42 220.729 404.253 252.275C471.531 248.721 502.741 255.249 519.682 317.563C574.227 326.409 601.475 335.496 627.865 379.195C619.443 416.279 577.136 448.662 527.517 440.827Z" fill="#FFEFDB"/>
<path d="M649.5 286.458C649.678 300.431 647.907 309.12 644 324.958C672.566 324.487 685.18 320.613 690 294.958C680 284.958 661.407 282.052 649.5 286.458Z" fill="#361609"/>
<path d="M403 127.958C386.938 138.992 378.488 145.894 364 158.958C356.7 142.019 355.111 132.221 363 113.458C385 110.458 395.5 116.458 403 127.958Z" fill="#361609"/>
<path d="M177.049 503.504C102.865 510.508 28.0646 512.383 35.5044 551.556C44.5315 599.086 171.826 622.068 258.007 588.118C408.954 674.821 507.669 541.633 527.517 446.05C610.042 450.229 628.845 397.476 649.215 324.875C705.624 329.576 703.012 267.422 652.871 265.855C631.456 166.616 503.491 105.507 418.355 122.743C397.463 84.6144 337.398 105.507 362.991 153.037C310.238 202.656 271.065 270.555 314.416 325.92C296.658 321.742 235.548 306.072 228.235 325.92C217.767 354.333 252.262 360.392 260.096 368.227C231.962 375 215.839 377.035 189.585 393.298M164.514 363.074C152.931 355.051 141.753 354.961 132.653 361.537C129.187 364.042 126.023 367.514 123.252 371.883C96.0919 414.712 122.207 508.498 167.126 483.134C168.17 488.88 174.438 499.848 177.049 503.504M177.049 503.504H193.241M189.585 393.298C192.196 403.221 191.674 438.216 183.317 448.14M189.585 393.298C181.436 378.778 172.87 368.861 164.514 363.074M164.514 363.074C160.315 371.236 158.122 376.118 155.113 386.508M132.653 361.537L134.22 385.242" stroke="black" stroke-width="10" stroke-linecap="round"/>
<ellipse cx="348.742" cy="288.65" rx="31.6532" ry="20.3058" transform="rotate(21.8569 348.742 288.65)" fill="#FFD6C9"/>
<g clip-path="url(#clip0_11_2)">
<rect x="30" y="282.973" width="296.908" height="296.908" rx="29" transform="rotate(-24.6886 30 282.973)" fill="#2B2B2B"/>
<path d="M240.213 475.33C259.405 466.508 267.862 443.863 259.091 424.783L243.202 390.219L208.434 406.202C189.242 415.025 180.785 437.67 189.556 456.749C198.327 475.829 221.021 484.153 240.213 475.33Z" fill="#0ACF83"/>
<path d="M157.777 387.622C149.006 368.542 157.464 345.897 176.655 337.075L211.423 321.092L243.202 390.219L208.434 406.202C189.242 415.025 166.548 406.701 157.777 387.622Z" fill="#A259FF"/>
<path d="M125.998 318.494C117.228 299.414 125.685 276.769 144.877 267.947L179.645 251.964L211.423 321.091L176.656 337.074C157.464 345.897 134.769 337.573 125.998 318.494Z" fill="#F24E1E"/>
<path d="M179.645 251.964L214.412 235.981C233.604 227.158 256.298 235.482 265.069 254.562C273.84 273.641 265.383 296.286 246.191 305.109L211.423 321.092L179.645 251.964Z" fill="#FF7262"/>
<path d="M296.848 323.689C305.619 342.769 297.161 365.414 277.97 374.236C258.778 383.059 236.083 374.735 227.312 355.656C218.542 336.576 226.999 313.931 246.191 305.109C265.383 296.286 288.077 304.61 296.848 323.689Z" fill="#1ABCFE"/>
</g>
<path d="M424.1 401.438C453.076 398.193 467.491 438.373 470.586 450.751L429.323 491.491C413.021 483.587 381.464 432.03 402.686 411.187C403.901 409.993 405.29 408.9 406.864 407.922C413.102 404.046 418.841 402.027 424.1 401.438Z" fill="#704730"/>
<path d="M261.232 508.657C249.3 530.029 243.916 554.035 261.232 571.334C281.955 592.037 316.483 577.829 334.355 554.62C345.508 540.137 351 520.305 347.844 503.582C345.74 492.44 339.798 482.678 329.132 476.797C303.481 462.654 275.511 483.083 261.232 508.657Z" fill="#704730"/>
<path d="M329.132 476.797C303.481 462.654 275.511 483.083 261.232 508.657C249.3 530.029 243.916 554.035 261.232 571.334C281.955 592.037 316.483 577.829 334.355 554.62C345.508 540.137 351 520.305 347.844 503.582M329.132 476.797C319.617 482.544 314.399 485.793 309.193 492.536M329.132 476.797C339.798 482.678 345.74 492.44 347.844 503.582M347.844 503.582C338.466 503.275 333.422 501.686 322.773 509.772" stroke="black" stroke-width="10" stroke-linecap="round"/>
<path d="M461.5 429.958C439.352 444.467 427.14 450.41 405.5 459.458C389.614 431.599 395.638 421.096 412.5 404.458C440.559 401.43 450.537 408.107 461.5 429.958Z" fill="#452716"/>
<path d="M470.586 450.751C467.491 438.373 453.076 398.193 424.1 401.438M429.323 491.491C413.021 483.587 381.464 432.03 402.686 411.187M424.1 401.438C418.841 402.027 413.102 404.046 406.864 407.922C405.29 408.9 403.901 409.993 402.686 411.187M424.1 401.438L436.636 419.413M402.686 411.187L415.221 428.292" stroke="black" stroke-width="10" stroke-linecap="round"/>
<circle cx="395.373" cy="248.619" r="21.9369" fill="black"/>
<circle cx="536.396" cy="328.009" r="21.9369" fill="black"/>
<path d="M436.095 290.22C440.263 280.039 453.048 279.125 463.333 283.03C475.302 287.576 485.541 302.001 478.003 312.35C471.519 321.253 459.564 319.599 449.871 314.367C440.317 309.211 431.983 300.268 436.095 290.22Z" fill="black"/>
<path d="M449.871 314.367C440.317 309.211 431.983 300.268 436.095 290.22C440.263 280.039 453.048 279.125 463.333 283.03C475.302 287.576 485.541 302.001 478.003 312.35C471.519 321.253 459.564 319.599 449.871 314.367ZM449.871 314.367L442.904 326.965M442.904 326.965C452.305 342.634 463.333 344.201 476.853 341.589M442.904 326.965C427.234 330.098 414.699 322.264 411.565 308.162" stroke="black" stroke-width="10" stroke-linecap="round"/>
<circle cx="530.129" cy="325.92" r="5.22306" fill="white"/>
<circle cx="399.552" cy="252.797" r="5.22306" fill="white"/>
<ellipse cx="525.282" cy="383.71" rx="31.6532" ry="20.3058" transform="rotate(21.8569 525.282 383.71)" fill="#FFD6C9"/>
<defs>
<clipPath id="clip0_11_2">
<rect x="30" y="282.973" width="296.908" height="296.908" rx="29" transform="rotate(-24.6886 30 282.973)" fill="white"/>
</clipPath>
</defs>
</svg>
