<svg width="720" height="720" viewBox="0 0 720 720" fill="none" xmlns="http://www.w3.org/2000/svg">
<g clip-path="url(#clip0_19_3)">
<path d="M66.9997 724C57.5 596.5 106.5 458.5 187.5 357C160.729 308.152 154 269 169.5 193.5C126.5 181 114.5 93 207.5 116C289 2.50003 501 3.00001 589.5 111C637 98.5 662.5 143.5 622 177.5C627 193.5 636 240.5 636 240.5C669 321 622 393.5 541 419.5C604.5 493 634.5 605.5 539.5 636.5C544 656 543 698 536.5 724H66.9997Z" fill="#704730"/>
<path d="M539.5 410.5L279.5 407C313.5 426 326 454.5 322.5 478.5L340.5 487.5L410.5 452.5L451.5 460.5L476 445L517 465C520.244 429.029 527.5 423.272 539.5 410.5Z" fill="#ECDCC8"/>
<path d="M540.999 419.5C618 394.5 669 321 636 240.5C612.208 231.917 596.467 234.407 563.5 254C483.047 206.615 436.159 199.046 345.5 260.5C248.209 251.367 201.776 256.172 176.805 335.5C212.5 430 435.558 453.734 540.999 419.5Z" fill="#FFEFDB"/>
<path d="M508 256.5C508.343 223.877 417.294 234.298 425 266C430.056 286.799 448.173 299.828 469.5 298C491.526 296.112 507.767 278.606 508 256.5Z" fill="black" stroke="black" stroke-width="12" stroke-linecap="round" stroke-linejoin="round"/>
<path d="M500 322.5C485.5 325 466.5 317 466.5 317C466.5 317 437 328 415.5 322.5C407.04 320.336 393 337 400 351C406.308 363.615 435.383 344.941 458 344.5C478.947 344.092 505 363.5 512.5 349C517.601 339.139 512.5 320.345 500 322.5Z" fill="white"/>
<path d="M469.5 298L466.5 317M466.5 317C466.5 317 485.5 325 500 322.5C512.5 320.345 517.601 339.139 512.5 349C505 363.5 478.947 344.092 458 344.5C435.383 344.941 406.308 363.615 400 351C393 337 407.04 320.336 415.5 322.5C437 328 466.5 317 466.5 317Z" stroke="black" stroke-width="12" stroke-linecap="round" stroke-linejoin="round"/>
<path d="M560.5 180C581.078 180 598 197.326 598 219C598 240.674 581.078 258 560.5 258C539.922 258 523 240.674 523 219C523 197.326 539.922 180 560.5 180Z" fill="white" stroke="black" stroke-width="8"/>
<path d="M341.5 186C363.359 186 381 203.504 381 225C381 246.496 363.359 264 341.5 264C319.641 264 302 246.496 302 225C302 203.504 319.641 186 341.5 186Z" fill="white" stroke="black" stroke-width="8"/>
<circle cx="549.5" cy="220.5" r="18.5" fill="black"/>
<circle cx="350.5" cy="222.5" r="18.5" fill="black"/>
<circle cx="543.5" cy="216.5" r="5.5" fill="white"/>
<path d="M265 617C252 659 251 697 262 723H493C502.351 689.768 506.684 670.687 506 632.5L477.5 612.5L450.5 550L412 594L365.5 625.5L305 632.5L265 617Z" fill="#ECDCC8"/>
<circle cx="356.5" cy="217.5" r="5.5" fill="white"/>
<path d="M527 156C540.873 175.076 567 179 590.5 179" stroke="black" stroke-width="12" stroke-linecap="round" stroke-linejoin="round"/>
<path d="M305 187C328.525 188.706 353.84 178.456 369 160.5" stroke="black" stroke-width="12" stroke-linecap="round" stroke-linejoin="round"/>
<path d="M602.5 133L624 175C639.117 157.747 640.105 148.127 637.5 131C626.5 124.5 611 128 602.5 133Z" fill="#361609"/>
<path d="M199 143.5C190 155 179.5 179 175 196C151.171 182.542 142.52 172.308 139.5 147C151 132 171 129.5 199 143.5Z" fill="#361609"/>
<path d="M538.849 495.361L539 495L504.5 454L468.5 446.5L453.5 463L462.5 502.5L451 548L457.5 567C470.71 564.885 476.702 559.232 487.5 549.5C501 546.5 515 535.5 521 519C531.261 513.447 534.017 506.878 538.849 495.361Z" fill="#452716"/>
<path d="M367.5 516C356.848 505.266 354.218 497.762 351.5 483.5L407.5 452.5L450 462L464.5 497L453 545L421.5 584.5C407.189 577.319 400.527 571.933 394.5 556.5C379 550 368.5 533 367.5 516Z" fill="#452716"/>
<path d="M187.5 357C106.5 458.5 57.5 596.5 66.9997 724H536.5C543 698 544 656 539.5 636.5M187.5 357C160.729 308.152 154 269 169.5 193.5C126.5 181 114.5 93 207.5 116C289 2.50003 501 3.00001 589.5 111M187.5 357C206 384.5 249 410 283.5 415.5M589.5 111C637 98.5 662.5 143.5 622 177.5M541 419.5C622 393.5 669 321 636 240.5C636 240.5 627 193.5 622 177.5C615.593 157 601.5 128 589.5 111M541 419.5C604.5 493 634.5 605.5 539.5 636.5M541 419.5C535.5 421.265 516 425.5 511.5 426.5M539.5 636.5C488 643 466.167 599.644 451 547M451 547C382.5 652 278 671.5 197 547M451 547C460.32 526.13 465.539 511.164 462.988 494.5M451 464C479 419.5 530 466 555.5 525.5M451 464C443.5 457 428.131 449.116 406 453.5C353 464 349 523 299 452M451 464C452.208 466.055 453.321 468.052 454.343 470M454.343 470C467.116 463.826 474.824 464.076 489 467.5M454.343 470C459.061 478.994 461.828 486.923 462.988 494.5M454.343 470C430.001 469.774 423.531 473.101 414 480M462.988 494.5C476.136 491.552 483.131 491.274 493.5 498.5M462.988 494.5C443.44 496.335 437.786 499.802 431 507.5" stroke="black" stroke-width="12" stroke-linecap="round" stroke-linejoin="round"/>
<ellipse cx="304.83" cy="314.909" rx="56.9509" ry="30.2177" transform="rotate(1.71499 304.83 314.909)" fill="#FFD6C9"/>
<ellipse cx="583.083" cy="301.644" rx="47.9866" ry="25.4613" transform="rotate(-0.218195 583.083 301.644)" fill="#FFD6C9"/>
</g>
<defs>
<clipPath id="clip0_19_3">
<rect width="720" height="720" fill="white"/>
</clipPath>
</defs>
</svg>
