<svg width="1080" height="1080" viewBox="0 0 1080 1080" fill="none" xmlns="http://www.w3.org/2000/svg">
<path d="M295.18 754.529C285.612 626.118 334.963 487.131 416.542 384.906C389.579 335.708 382.802 296.276 398.413 220.237C355.106 207.647 343.02 119.018 436.685 142.183C518.767 27.8712 732.283 28.3748 821.415 137.147C869.255 124.558 894.938 169.879 854.148 204.122C859.184 220.237 868.248 267.573 868.248 267.573C901.484 348.648 854.148 421.667 772.569 447.852C836.523 521.878 866.737 635.182 771.058 666.404C774.278 680.355 773.835 705.554 771.577 728.5C798 754.529 832.5 813.5 768.037 895.5C768.037 895.5 872.568 909.972 863.5 947C860.888 957.665 852.838 967.53 841.874 975C833.297 980.844 822.936 985.223 812 987.372C804.801 988.786 797.353 989.235 790 988.5C760 985.5 720.5 958.5 645 945C634.396 943.104 632.397 934.419 636.5 918.078C606.818 926.896 571.948 930.182 531.5 927.5C582.106 936.686 629.691 939.203 628 979C627.612 988.139 622.56 995.865 615 1002.18C604.316 1011.11 588.623 1017.23 574 1020.55C561.705 1023.34 550.166 1024.15 543 1023C484 1013.5 449.802 988.023 392 959C383.017 954.489 382.518 946.707 388.5 932.5C379.238 927.607 370.556 921.569 362.5 914.484C362.5 914.484 261.065 917.285 278.5 948C298.503 983.238 487.511 1023.94 468 1053.5C455.46 1072.5 392 1040.5 348.5 1040.5C268.5 1040.5 81.1937 1033 124.5 907.5C149 836.5 236.5 854 295.18 754.529Z" fill="#704730"/>
<path d="M388.5 932.5C379.238 927.607 370.556 921.569 362.5 914.484C324.455 881.028 300.374 824.239 295.18 754.529C285.612 626.118 334.963 487.131 416.542 384.906M295.18 754.529C236.5 854 149 836.5 124.5 907.5C81.1937 1033 268.5 1040.5 348.5 1040.5C392 1040.5 455.46 1072.5 468 1053.5C487.511 1023.94 298.503 983.238 278.5 948C261.065 917.285 362.5 914.484 362.5 914.484M416.542 384.906C389.579 335.708 382.802 296.276 398.413 220.237C355.106 207.647 343.02 119.018 436.685 142.183C518.767 27.8712 732.283 28.3748 821.415 137.147M416.542 384.906C435.174 412.602 478.482 438.285 513.228 443.824M821.415 137.147C869.255 124.558 894.938 169.879 854.148 204.122M742.858 454.902C747.39 453.895 767.03 449.63 772.569 447.852C854.148 421.667 901.484 348.648 868.248 267.573C868.248 267.573 859.184 220.237 854.148 204.122C847.695 183.476 833.502 154.268 821.415 137.147M772.569 447.852C836.523 521.878 866.737 635.182 771.058 666.404M771.058 666.404C719.19 672.95 697.201 629.285 681.926 576.264M531.5 927.5C571.948 930.182 606.818 926.896 636.5 918.078C710.844 895.991 752.645 839.196 768.037 754.529C769.435 746.837 770.657 737.856 771.577 728.5C773.835 705.554 774.278 680.355 771.058 666.404M681.926 576.264C612.936 682.015 507.689 701.654 426.11 576.264M681.926 576.264C691.312 555.245 696.569 540.172 693.999 523.389M681.926 492.671C710.126 447.852 761.49 494.685 787.173 554.61M681.926 492.671C674.372 485.621 658.893 477.68 636.604 482.096C583.225 492.671 579.196 552.092 528.839 480.585M681.926 492.671C683.142 494.74 684.264 496.752 685.292 498.713M685.292 498.713C698.157 492.495 705.92 492.747 720.197 496.196M685.292 498.713C690.044 507.772 692.831 515.757 693.999 523.389M685.292 498.713C660.777 498.486 654.26 501.837 644.661 508.785M693.999 523.389C707.242 520.42 714.287 520.139 724.729 527.417M693.999 523.389C674.311 525.237 668.618 528.729 661.783 536.482M388.5 932.5C382.519 946.707 383.017 954.489 392 959C449.802 988.023 484 1013.5 543 1023C550.166 1024.15 561.705 1023.34 574 1020.55M388.5 932.5L419 942M574 1020.55C588.623 1017.23 604.316 1011.11 615 1002.18C622.56 995.865 627.612 988.139 628 979C629.691 939.203 582.106 936.686 531.5 927.5M531.5 927.5C524.497 937 501 945 488.5 945M531.5 927.5C589 849.5 543 722 430.5 738M771.577 728.5C798 754.529 832.5 813.5 768.037 895.5M636.5 918.078C632.397 934.419 634.396 943.104 645 945C720.5 958.5 760 985.5 790 988.5C797.353 989.235 804.801 988.786 812 987.372C822.936 985.223 833.297 980.844 841.874 975C852.838 967.53 860.888 957.665 863.5 947C872.568 909.972 768.037 895.5 768.037 895.5M768.037 895.5C752.56 905.017 744.47 910.892 722 914M615 1002.18C612 987 600.5 971 570.5 961M538 977C566 986.5 576.5 1008.5 574 1020.55M812 987.372C806.063 955.388 790 949 773.5 942.5M801.5 927.5C828 939 845.619 947.307 841.874 975" stroke="black" stroke-width="12" stroke-linecap="round" stroke-linejoin="round"/>
<path d="M295.18 754.529C285.612 626.118 334.963 487.131 416.541 384.906C389.579 335.708 382.802 296.277 398.413 220.237C355.106 207.648 343.02 119.018 436.684 142.183C518.767 27.8714 732.283 28.375 821.415 137.147C869.255 124.558 894.938 169.879 854.148 204.122C859.184 220.237 868.248 267.573 868.248 267.573C901.484 348.648 854.148 421.667 772.569 447.853C836.523 521.878 866.737 635.182 771.058 666.404C775.59 686.043 774.583 728.344 768.036 754.529H295.18Z" fill="#704730"/>
<path d="M771.058 438.788L509.199 435.263C543.442 454.399 556.032 483.103 552.507 507.274L570.635 516.339L641.136 481.089L682.429 489.146L707.104 473.535L748.397 493.678C751.665 457.45 758.973 451.651 771.058 438.788Z" fill="#ECDCC8"/>
<path d="M772.569 447.853C850.12 422.674 901.484 348.648 868.248 267.573C844.286 258.928 828.433 261.437 795.23 281.169C714.202 233.445 666.978 225.822 575.671 287.716C477.685 278.518 430.92 283.357 405.771 363.252C441.721 458.428 666.373 482.331 772.569 447.853Z" fill="#FFEFDB"/>
<path d="M739.333 283.687C739.679 250.831 647.979 261.327 655.74 293.255C660.832 314.203 679.079 327.325 700.558 325.484C722.742 323.583 739.099 305.951 739.333 283.687Z" fill="black" stroke="black" stroke-width="12" stroke-linecap="round" stroke-linejoin="round"/>
<path d="M731.276 350.159C716.672 352.677 697.536 344.62 697.536 344.62C697.536 344.62 667.826 355.698 646.172 350.159C637.652 347.98 623.511 364.763 630.561 378.863C636.914 391.568 666.197 372.761 688.975 372.316C710.073 371.905 736.312 391.452 743.865 376.849C749.002 366.917 743.865 347.989 731.276 350.159Z" fill="white"/>
<path d="M700.558 325.484L697.536 344.62M697.536 344.62C697.536 344.62 716.672 352.677 731.276 350.159C743.865 347.989 749.002 366.917 743.865 376.849C736.312 391.452 710.073 371.905 688.975 372.316C666.197 372.761 636.914 391.568 630.561 378.863C623.511 364.763 637.652 347.98 646.172 350.159C667.826 355.698 697.536 344.62 697.536 344.62Z" stroke="black" stroke-width="12" stroke-linecap="round" stroke-linejoin="round"/>
<path d="M792.208 206.612C812.95 206.612 830.005 224.075 830.005 245.919C830.005 267.763 812.95 285.227 792.208 285.227C771.467 285.227 754.412 267.763 754.412 245.919C754.412 224.075 771.467 206.612 792.208 206.612Z" fill="white" stroke="black" stroke-width="8"/>
<path d="M571.642 212.655C593.673 212.655 611.454 230.297 611.454 251.962C611.454 273.628 593.673 291.27 571.642 291.27C549.612 291.27 531.832 273.627 531.832 251.962C531.832 230.297 549.612 212.655 571.642 212.655Z" fill="white" stroke="black" stroke-width="8"/>
<circle cx="781.129" cy="247.43" r="18.6323" fill="black"/>
<circle cx="580.707" cy="249.444" r="18.6323" fill="black"/>
<circle cx="775.087" cy="243.401" r="5.53932" fill="white"/>
<path d="M491.5 645.5C480.5 675.5 480.5 724.5 486.501 744L514 759L547.5 799L558 840.5C694.5 873 735.783 761.968 734 662.375L708.616 642.232L681.422 579.286L642.647 623.6L595.815 655.325L534.882 662.375L491.5 645.5Z" fill="#ECDCC8"/>
<circle cx="586.75" cy="244.408" r="5.53932" fill="white"/>
<path d="M758.469 182.469C772.442 201.681 798.755 205.633 822.423 205.633" stroke="black" stroke-width="12" stroke-linecap="round" stroke-linejoin="round"/>
<path d="M534.882 213.69C558.575 215.408 584.071 205.085 599.339 187.001" stroke="black" stroke-width="12" stroke-linecap="round" stroke-linejoin="round"/>
<path d="M834.509 159.304L856.162 201.605C871.387 184.229 872.383 174.54 869.759 157.29C858.68 150.744 843.07 154.269 834.509 159.304Z" fill="#361609"/>
<path d="M428.124 169.879C419.06 181.462 408.485 205.633 403.953 222.755C379.953 209.2 371.24 198.893 368.199 173.404C379.781 158.297 399.924 155.779 428.124 169.879Z" fill="#361609"/>
<path d="M770.402 524.256L770.554 523.892L735.808 482.599L699.55 475.046L684.443 491.664L693.508 531.446L681.925 577.271L688.472 596.407C701.776 594.277 707.811 588.583 718.686 578.782C732.283 575.761 746.383 564.682 752.426 548.064C762.76 542.471 765.536 535.856 770.402 524.256Z" fill="#452716"/>
<path d="M597.829 545.042C587.101 534.232 584.452 526.674 581.714 512.31L638.115 481.089L680.919 490.656L695.522 525.907L683.94 574.25L652.215 614.032C637.802 606.799 631.092 601.375 625.022 585.832C609.411 579.286 598.836 562.164 597.829 545.042Z" fill="#452716"/>
<path d="M388.5 932.5C379.238 927.607 370.556 921.569 362.5 914.484C324.455 881.028 300.374 824.239 295.18 754.529C285.612 626.118 334.963 487.131 416.542 384.906M295.18 754.529C236.5 854 149 836.5 124.5 907.5C81.1937 1033 268.5 1040.5 348.5 1040.5C392 1040.5 455.46 1072.5 468 1053.5C487.511 1023.94 298.503 983.238 278.5 948C261.065 917.285 362.5 914.484 362.5 914.484M416.542 384.906C389.579 335.708 382.802 296.276 398.413 220.237C355.106 207.647 343.02 119.018 436.685 142.183C518.767 27.8712 732.283 28.3748 821.415 137.147M416.542 384.906C435.174 412.602 478.482 438.285 513.228 443.824M821.415 137.147C869.255 124.558 894.938 169.879 854.148 204.122M742.858 454.902C747.39 453.895 767.03 449.63 772.569 447.852C854.148 421.667 901.484 348.648 868.248 267.573C868.248 267.573 859.184 220.237 854.148 204.122C847.695 183.476 833.502 154.268 821.415 137.147M772.569 447.852C836.523 521.878 866.737 635.182 771.058 666.404M771.058 666.404C719.19 672.95 697.201 629.285 681.926 576.264M531.5 927.5C571.948 930.182 606.818 926.896 636.5 918.078C710.844 895.991 752.645 839.196 768.037 754.529C769.435 746.837 770.657 737.856 771.577 728.5C773.835 705.554 774.278 680.355 771.058 666.404M681.926 576.264C612.936 682.015 507.689 701.654 426.11 576.264M681.926 576.264C691.312 555.245 696.569 540.172 693.999 523.389M681.926 492.671C710.126 447.852 761.49 494.685 787.173 554.61M681.926 492.671C674.372 485.621 658.893 477.68 636.604 482.096C583.225 492.671 579.196 552.092 528.839 480.585M681.926 492.671C683.142 494.74 684.264 496.752 685.292 498.713M685.292 498.713C698.157 492.495 705.92 492.747 720.197 496.196M685.292 498.713C690.044 507.772 692.831 515.757 693.999 523.389M685.292 498.713C660.777 498.486 654.26 501.837 644.661 508.785M693.999 523.389C707.242 520.42 714.287 520.139 724.729 527.417M693.999 523.389C674.311 525.237 668.618 528.729 661.783 536.482M388.5 932.5C382.519 946.707 383.017 954.489 392 959C449.802 988.023 484 1013.5 543 1023C550.166 1024.15 561.705 1023.34 574 1020.55M388.5 932.5L419 942M574 1020.55C588.623 1017.23 604.316 1011.11 615 1002.18C622.56 995.865 627.612 988.139 628 979C629.691 939.203 582.106 936.686 531.5 927.5M531.5 927.5C524.497 937 501 945 488.5 945M531.5 927.5C589 849.5 543 722 430.5 738M771.577 728.5C798 754.529 832.5 813.5 768.037 895.5M636.5 918.078C632.397 934.419 634.396 943.104 645 945C720.5 958.5 760 985.5 790 988.5C797.353 989.235 804.801 988.786 812 987.372C822.936 985.223 833.297 980.844 841.874 975C852.838 967.53 860.888 957.665 863.5 947C872.568 909.972 768.037 895.5 768.037 895.5M768.037 895.5C752.56 905.017 744.47 910.892 722 914M615 1002.18C612 987 600.5 971 570.5 961M538 977C566 986.5 576.5 1008.5 574 1020.55M812 987.372C806.063 955.388 790 949 773.5 942.5M801.5 927.5C828 939 845.619 947.307 841.874 975" stroke="black" stroke-width="12" stroke-linecap="round" stroke-linejoin="round"/>
<ellipse cx="534.71" cy="342.513" rx="57.358" ry="30.4337" transform="rotate(1.71499 534.71 342.513)" fill="#FFD6C9"/>
<ellipse cx="814.953" cy="329.154" rx="48.3297" ry="25.6434" transform="rotate(-0.218195 814.953 329.154)" fill="#FFD6C9"/>
</svg>
